solid OpenSCAD_Model
  facet normal 1 0 0
    outer loop
      vertex 0 0.0199881 0.52
      vertex 0 0.2 0.0199995
      vertex 0 0.219985 0.0199995
    endloop
  endfacet
  facet normal 1 0 0
    outer loop
      vertex 0 0.2 0.0199995
      vertex 0 0.0199881 0.52
      vertex 0 0.199996 0.0199995
    endloop
  endfacet
  facet normal 1 0 0
    outer loop
      vertex 0 0.0199881 0.52
      vertex 0 0 0.52
      vertex 0 0.199996 0.0199995
    endloop
  endfacet
  facet normal 1 0 0
    outer loop
      vertex 0 0 0.52
      vertex 0 0.0199881 0.52
      vertex 0 0 1.02
    endloop
  endfacet
  facet normal 1 0 0
    outer loop
      vertex 0 3 1.04
      vertex 0 2.98001 1.02
      vertex 0 3 0.52
    endloop
  endfacet
  facet normal 1 0 0
    outer loop
      vertex 0 3 1.04
      vertex 0 1.52 1.02
      vertex 0 2.98001 1.02
    endloop
  endfacet
  facet normal 1 0 0
    outer loop
      vertex 0 1.52 1.02
      vertex 0 1.5 1.02
      vertex 0 1.52 0.0199995
    endloop
  endfacet
  facet normal 1 0 0
    outer loop
      vertex 0 3 1.04
      vertex 0 1.5 1.02
      vertex 0 1.52 1.02
    endloop
  endfacet
  facet normal 1 0 0
    outer loop
      vertex 0 3 1.04
      vertex 0 0.77 1.02
      vertex 0 1.5 1.02
    endloop
  endfacet
  facet normal 1 0 0
    outer loop
      vertex 0 0.77 1.02
      vertex 0 0.75 1.02
      vertex 0 0.77 0.24
    endloop
  endfacet
  facet normal 1 -0 0
    outer loop
      vertex 0 -0.2 1.04
      vertex 0 0.77 1.02
      vertex 0 3 1.04
    endloop
  endfacet
  facet normal 1 0 0
    outer loop
      vertex 0 0.77 1.02
      vertex 0 -0.2 1.04
      vertex 0 0.75 1.02
    endloop
  endfacet
  facet normal 1 0 0
    outer loop
      vertex 0 0.0199881 1.02
      vertex 0 0 1.02
      vertex 0 0.0199881 0.52
    endloop
  endfacet
  facet normal 1 0 0
    outer loop
      vertex 0 0.75 1.02
      vertex 0 -0.2 1.04
      vertex 0 0.0199881 1.02
    endloop
  endfacet
  facet normal 1 0 0
    outer loop
      vertex 0 0.0199881 1.02
      vertex 0 -0.2 1.04
      vertex 0 0 1.02
    endloop
  endfacet
  facet normal 1 0 0
    outer loop
      vertex 0 0 1.02
      vertex 0 -0.2 1.04
      vertex 0 -0.2 1.02
    endloop
  endfacet
  facet normal 1 0 0
    outer loop
      vertex 0 2.98001 0.52
      vertex 0 3 0.52
      vertex 0 2.98001 1.02
    endloop
  endfacet
  facet normal 1 -0 0
    outer loop
      vertex 0 2.98001 0.52
      vertex 0 2.8 0.0199995
      vertex 0 3 0.52
    endloop
  endfacet
  facet normal 1 0 0
    outer loop
      vertex 0 2.78001 0.0199995
      vertex 0 2.8 0.0199995
      vertex 0 2.98001 0.52
    endloop
  endfacet
  facet normal 1 -0 0
    outer loop
      vertex 0 2.78001 0.0199995
      vertex 0 2.8 0
      vertex 0 2.8 0.0199995
    endloop
  endfacet
  facet normal 1 -0 0
    outer loop
      vertex 0 1.52 0.0199995
      vertex 0 2.8 0
      vertex 0 2.78001 0.0199995
    endloop
  endfacet
  facet normal 1 0 0
    outer loop
      vertex 0 1.5 0.0199995
      vertex 0 1.52 0.0199995
      vertex 0 1.5 1.02
    endloop
  endfacet
  facet normal 1 -0 0
    outer loop
      vertex 0 1.5 0.0199995
      vertex 0 2.8 0
      vertex 0 1.52 0.0199995
    endloop
  endfacet
  facet normal 1 0 0
    outer loop
      vertex 0 0.2 0
      vertex 0 1.5 0.0199995
      vertex 0 0.219985 0.0199995
    endloop
  endfacet
  facet normal 1 0 0
    outer loop
      vertex 0 0.2 0
      vertex 0 0.219985 0.0199995
      vertex 0 0.2 0.0199995
    endloop
  endfacet
  facet normal 1 0 0
    outer loop
      vertex 0 1.5 0.0199995
      vertex 0 0.2 0
      vertex 0 2.8 0
    endloop
  endfacet
  facet normal 1 0 0
    outer loop
      vertex 0 0.77 0.24
      vertex 0 0.75 1.02
      vertex 0 0.75 0.24
    endloop
  endfacet
  facet normal 0 1 -0
    outer loop
      vertex 0.25 0.77 0.0599995
      vertex 0 0.77 0.24
      vertex 0.25 0.77 0.24
    endloop
  endfacet
  facet normal 0 1 0
    outer loop
      vertex -0.249999 0.77 0.0599995
      vertex 0 0.77 0.24
      vertex 0.25 0.77 0.0599995
    endloop
  endfacet
  facet normal 0 1 0
    outer loop
      vertex 0 0.77 0.24
      vertex -0.249999 0.77 0.0599995
      vertex -0.249999 0.77 0.219279
    endloop
  endfacet
  facet normal 0 1 -0
    outer loop
      vertex 0 0.77 0.24
      vertex -0.25 0.77 1.02
      vertex 0 0.77 1.02
    endloop
  endfacet
  facet normal 0 1 0
    outer loop
      vertex -0.25 0.77 1.02
      vertex 0 0.77 0.24
      vertex -0.249999 0.77 0.219279
    endloop
  endfacet
  facet normal 0 -1 0
    outer loop
      vertex -0.25 0.75 1.02
      vertex 0 0.75 0.24
      vertex 0 0.75 1.02
    endloop
  endfacet
  facet normal 0 -1 0
    outer loop
      vertex -0.249999 0.75 0.212033
      vertex 0 0.75 0.24
      vertex -0.25 0.75 1.02
    endloop
  endfacet
  facet normal 0 -1 0
    outer loop
      vertex -0.249999 0.75 0.04
      vertex 0 0.75 0.24
      vertex -0.249999 0.75 0.212033
    endloop
  endfacet
  facet normal 0 -1 -0
    outer loop
      vertex 0 0.75 0.24
      vertex -0.249999 0.75 0.04
      vertex 0.25 0.75 0.04
    endloop
  endfacet
  facet normal 0 -1 0
    outer loop
      vertex 0 0.75 0.24
      vertex 0.25 0.75 0.04
      vertex 0.25 0.75 0.24
    endloop
  endfacet
  facet normal -0 0 1
    outer loop
      vertex 0 0.77 0.24
      vertex 0.25 0.75 0.24
      vertex 0.25 0.77 0.24
    endloop
  endfacet
  facet normal 0 0 1
    outer loop
      vertex 0.25 0.75 0.24
      vertex 0 0.77 0.24
      vertex 0 0.75 0.24
    endloop
  endfacet
  facet normal 1 0 0
    outer loop
      vertex 0.25 0.77 0.24
      vertex 0.25 0.75 0.24
      vertex 0.25 0.77 0.0599995
    endloop
  endfacet
  facet normal 1 0 0
    outer loop
      vertex 0.25 0.95 0.0599995
      vertex 0.25 0.969999 0.24
      vertex 0.25 0.95 0.24
    endloop
  endfacet
  facet normal 1 0 0
    outer loop
      vertex 0.25 0.969999 0.24
      vertex 0.25 0.95 0.0599995
      vertex 0.25 0.969999 0.04
    endloop
  endfacet
  facet normal 1 -0 0
    outer loop
      vertex 0.25 0.77 0.0599995
      vertex 0.25 0.969999 0.04
      vertex 0.25 0.95 0.0599995
    endloop
  endfacet
  facet normal 1 0 0
    outer loop
      vertex 0.25 0.77 0.0599995
      vertex 0.25 0.75 0.04
      vertex 0.25 0.969999 0.04
    endloop
  endfacet
  facet normal 1 0 0
    outer loop
      vertex 0.25 0.75 0.04
      vertex 0.25 0.77 0.0599995
      vertex 0.25 0.75 0.24
    endloop
  endfacet
  facet normal 0 0 -1
    outer loop
      vertex -0.249999 0.75 0.04
      vertex 0.25 0.969999 0.04
      vertex 0.25 0.75 0.04
    endloop
  endfacet
  facet normal -0 0 -1
    outer loop
      vertex 0.25 0.969999 0.04
      vertex -0.249999 0.75 0.04
      vertex -0.249999 0.969999 0.04
    endloop
  endfacet
  facet normal -0 0 1
    outer loop
      vertex -0.249999 0.95 0.0599995
      vertex 0.25 0.77 0.0599995
      vertex 0.25 0.95 0.0599995
    endloop
  endfacet
  facet normal 0 0 1
    outer loop
      vertex 0.25 0.77 0.0599995
      vertex -0.249999 0.95 0.0599995
      vertex -0.249999 0.77 0.0599995
    endloop
  endfacet
  facet normal 0 -1 0
    outer loop
      vertex -0.249999 0.95 0.0599995
      vertex 0.25 0.95 0.24
      vertex -0.249999 0.95 0.24
    endloop
  endfacet
  facet normal 0 -1 -0
    outer loop
      vertex 0.25 0.95 0.24
      vertex -0.249999 0.95 0.0599995
      vertex 0.25 0.95 0.0599995
    endloop
  endfacet
  facet normal -0 0 1
    outer loop
      vertex -0.249999 0.969999 0.24
      vertex 0.25 0.95 0.24
      vertex 0.25 0.969999 0.24
    endloop
  endfacet
  facet normal 0 0 1
    outer loop
      vertex 0.25 0.95 0.24
      vertex -0.249999 0.969999 0.24
      vertex -0.249999 0.95 0.24
    endloop
  endfacet
  facet normal 0 1 -0
    outer loop
      vertex 0.25 0.969999 0.04
      vertex -0.249999 0.969999 0.24
      vertex 0.25 0.969999 0.24
    endloop
  endfacet
  facet normal 0 1 0
    outer loop
      vertex -0.249999 0.969999 0.24
      vertex 0.25 0.969999 0.04
      vertex -0.249999 0.969999 0.04
    endloop
  endfacet
  facet normal 1 0 0
    outer loop
      vertex -0.27 0.77 1.02
      vertex -0.27 0.75 1.02
      vertex -0.27 0.77 0.0599995
    endloop
  endfacet
  facet normal 1 0 0
    outer loop
      vertex -0.27 0.95 0.0599995
      vertex -0.27 0.969999 0.24
      vertex -0.27 0.95 0.24
    endloop
  endfacet
  facet normal 1 0 0
    outer loop
      vertex -0.27 0.969999 0.24
      vertex -0.27 0.95 0.0599995
      vertex -0.27 0.969999 0.04
    endloop
  endfacet
  facet normal 1 -0 0
    outer loop
      vertex -0.27 0.77 0.0599995
      vertex -0.27 0.969999 0.04
      vertex -0.27 0.95 0.0599995
    endloop
  endfacet
  facet normal 1 0 0
    outer loop
      vertex -0.27 0.77 0.0599995
      vertex -0.27 0.75 0.04
      vertex -0.27 0.969999 0.04
    endloop
  endfacet
  facet normal 1 0 0
    outer loop
      vertex -0.27 0.75 0.04
      vertex -0.27 0.77 0.0599995
      vertex -0.27 0.75 1.02
    endloop
  endfacet
  facet normal -0 0 1
    outer loop
      vertex -0.52 0.77 1.02
      vertex -0.5 0.75 1.02
      vertex -0.5 0.77 1.02
    endloop
  endfacet
  facet normal 0 0 1
    outer loop
      vertex -0.5 0.75 1.02
      vertex -0.52 0.77 1.02
      vertex -0.52 0.75 1.02
    endloop
  endfacet
  facet normal -1 0 0
    outer loop
      vertex -0.52 0.75 0.24
      vertex -0.52 0.77 1.02
      vertex -0.52 0.77 0.24
    endloop
  endfacet
  facet normal -1 -0 0
    outer loop
      vertex -0.52 0.77 1.02
      vertex -0.52 0.75 0.24
      vertex -0.52 0.75 1.02
    endloop
  endfacet
  facet normal 0 1 0
    outer loop
      vertex -0.52 0.77 0.24
      vertex -0.5 0.77 1.02
      vertex -0.27 0.77 1.02
    endloop
  endfacet
  facet normal 0 1 0
    outer loop
      vertex -0.5 0.77 1.02
      vertex -0.52 0.77 0.24
      vertex -0.52 0.77 1.02
    endloop
  endfacet
  facet normal 0 1 -0
    outer loop
      vertex -0.27 0.77 0.0599995
      vertex -0.52 0.77 0.24
      vertex -0.27 0.77 1.02
    endloop
  endfacet
  facet normal 0 1 0
    outer loop
      vertex -0.77 0.77 0.0599995
      vertex -0.52 0.77 0.24
      vertex -0.27 0.77 0.0599995
    endloop
  endfacet
  facet normal 0 1 0
    outer loop
      vertex -0.52 0.77 0.24
      vertex -0.77 0.77 0.0599995
      vertex -0.77 0.77 0.24
    endloop
  endfacet
  facet normal 0 -1 0
    outer loop
      vertex -0.77 0.75 0.24
      vertex -0.77 0.75 0.04
      vertex -0.52 0.75 0.24
    endloop
  endfacet
  facet normal 0 -1 0
    outer loop
      vertex -0.52 0.75 0.24
      vertex -0.5 0.75 1.02
      vertex -0.52 0.75 1.02
    endloop
  endfacet
  facet normal 0 -1 -0
    outer loop
      vertex -0.5 0.75 1.02
      vertex -0.52 0.75 0.24
      vertex -0.27 0.75 1.02
    endloop
  endfacet
  facet normal 0 -1 0
    outer loop
      vertex -0.52 0.75 0.24
      vertex -0.27 0.75 0.04
      vertex -0.27 0.75 1.02
    endloop
  endfacet
  facet normal 0 -1 0
    outer loop
      vertex -0.27 0.75 0.04
      vertex -0.52 0.75 0.24
      vertex -0.77 0.75 0.04
    endloop
  endfacet
  facet normal -0 0 1
    outer loop
      vertex -0.77 0.77 0.24
      vertex -0.52 0.75 0.24
      vertex -0.52 0.77 0.24
    endloop
  endfacet
  facet normal 0 0 1
    outer loop
      vertex -0.52 0.75 0.24
      vertex -0.77 0.77 0.24
      vertex -0.77 0.75 0.24
    endloop
  endfacet
  facet normal -1 0 0
    outer loop
      vertex -0.77 0.969999 0.04
      vertex -0.77 0.95 0.0599995
      vertex -0.77 0.969999 0.24
    endloop
  endfacet
  facet normal -1 0 0
    outer loop
      vertex -0.77 0.969999 0.04
      vertex -0.77 0.77 0.0599995
      vertex -0.77 0.95 0.0599995
    endloop
  endfacet
  facet normal -1 0 0
    outer loop
      vertex -0.77 0.75 0.04
      vertex -0.77 0.77 0.0599995
      vertex -0.77 0.969999 0.04
    endloop
  endfacet
  facet normal -1 0 0
    outer loop
      vertex -0.77 0.75 0.24
      vertex -0.77 0.77 0.0599995
      vertex -0.77 0.75 0.04
    endloop
  endfacet
  facet normal -1 0 0
    outer loop
      vertex -0.77 0.77 0.0599995
      vertex -0.77 0.75 0.24
      vertex -0.77 0.77 0.24
    endloop
  endfacet
  facet normal -1 -0 0
    outer loop
      vertex -0.77 0.969999 0.24
      vertex -0.77 0.95 0.0599995
      vertex -0.77 0.95 0.24
    endloop
  endfacet
  facet normal 0 0 -1
    outer loop
      vertex -0.77 0.75 0.04
      vertex -0.27 0.969999 0.04
      vertex -0.27 0.75 0.04
    endloop
  endfacet
  facet normal -0 0 -1
    outer loop
      vertex -0.27 0.969999 0.04
      vertex -0.77 0.75 0.04
      vertex -0.77 0.969999 0.04
    endloop
  endfacet
  facet normal -0 0 1
    outer loop
      vertex -0.77 0.95 0.0599995
      vertex -0.27 0.77 0.0599995
      vertex -0.27 0.95 0.0599995
    endloop
  endfacet
  facet normal 0 0 1
    outer loop
      vertex -0.27 0.77 0.0599995
      vertex -0.77 0.95 0.0599995
      vertex -0.77 0.77 0.0599995
    endloop
  endfacet
  facet normal 0 -1 0
    outer loop
      vertex -0.77 0.95 0.0599995
      vertex -0.27 0.95 0.24
      vertex -0.77 0.95 0.24
    endloop
  endfacet
  facet normal 0 -1 -0
    outer loop
      vertex -0.27 0.95 0.24
      vertex -0.77 0.95 0.0599995
      vertex -0.27 0.95 0.0599995
    endloop
  endfacet
  facet normal -0 0 1
    outer loop
      vertex -0.77 0.969999 0.24
      vertex -0.27 0.95 0.24
      vertex -0.27 0.969999 0.24
    endloop
  endfacet
  facet normal 0 0 1
    outer loop
      vertex -0.27 0.95 0.24
      vertex -0.77 0.969999 0.24
      vertex -0.77 0.95 0.24
    endloop
  endfacet
  facet normal 0 1 -0
    outer loop
      vertex -0.27 0.969999 0.04
      vertex -0.77 0.969999 0.24
      vertex -0.27 0.969999 0.24
    endloop
  endfacet
  facet normal 0 1 0
    outer loop
      vertex -0.77 0.969999 0.24
      vertex -0.27 0.969999 0.04
      vertex -0.77 0.969999 0.04
    endloop
  endfacet
  facet normal 0 0 -1
    outer loop
      vertex -0.5 0.2 0
      vertex 0 2.8 0
      vertex 0 0.2 0
    endloop
  endfacet
  facet normal -0 0 -1
    outer loop
      vertex 0 2.8 0
      vertex -0.5 0.2 0
      vertex -0.5 2.8 0
    endloop
  endfacet
  facet normal -1 0 0
    outer loop
      vertex -0.5 0.019989 0.52
      vertex -0.5 0 0.52
      vertex -0.5 0.019989 1.02
    endloop
  endfacet
  facet normal -1 0 0
    outer loop
      vertex -0.5 2.8 0
      vertex -0.5 1.52 0.0199995
      vertex -0.5 2.8 0.0199995
    endloop
  endfacet
  facet normal -1 0 0
    outer loop
      vertex -0.5 1.52 0.0199995
      vertex -0.5 1.5 0.0199995
      vertex -0.5 1.52 1.02
    endloop
  endfacet
  facet normal -1 0 0
    outer loop
      vertex -0.5 2.8 0
      vertex -0.5 1.5 0.0199995
      vertex -0.5 1.52 0.0199995
    endloop
  endfacet
  facet normal -1 0 0
    outer loop
      vertex -0.5 0.2 0
      vertex -0.5 1.5 0.0199995
      vertex -0.5 2.8 0
    endloop
  endfacet
  facet normal -1 -0 0
    outer loop
      vertex -0.5 1.5 0.0199995
      vertex -0.5 0.2 0
      vertex -0.5 0.2 0.0199995
    endloop
  endfacet
  facet normal -1 0 0
    outer loop
      vertex -0.5 2.98001 1.02
      vertex -0.5 3 0.52
      vertex -0.5 2.98001 0.52
    endloop
  endfacet
  facet normal -1 0 0
    outer loop
      vertex -0.5 3 0.52
      vertex -0.5 2.98001 1.02
      vertex -0.5 3 1.04
    endloop
  endfacet
  facet normal -1 0 0
    outer loop
      vertex -0.5 1.52 1.02
      vertex -0.5 3 1.04
      vertex -0.5 2.98001 1.02
    endloop
  endfacet
  facet normal -1 0 0
    outer loop
      vertex -0.5 1.5 1.02
      vertex -0.5 1.52 1.02
      vertex -0.5 1.5 0.0199995
    endloop
  endfacet
  facet normal -1 0 0
    outer loop
      vertex -0.5 1.5 1.02
      vertex -0.5 3 1.04
      vertex -0.5 1.52 1.02
    endloop
  endfacet
  facet normal -1 0 0
    outer loop
      vertex -0.5 0.77 1.02
      vertex -0.5 3 1.04
      vertex -0.5 1.5 1.02
    endloop
  endfacet
  facet normal -1 0 0
    outer loop
      vertex -0.5 -0.2 1.04
      vertex -0.5 0.77 1.02
      vertex -0.5 0.75 1.02
    endloop
  endfacet
  facet normal -1 0 0
    outer loop
      vertex -0.5 -0.2 1.04
      vertex -0.5 0.75 1.02
      vertex -0.5 0.019989 1.02
    endloop
  endfacet
  facet normal -1 0 0
    outer loop
      vertex -0.5 0 1.02
      vertex -0.5 0.019989 1.02
      vertex -0.5 0 0.52
    endloop
  endfacet
  facet normal -1 0 0
    outer loop
      vertex -0.5 -0.2 1.04
      vertex -0.5 0.019989 1.02
      vertex -0.5 0 1.02
    endloop
  endfacet
  facet normal -1 0 0
    outer loop
      vertex -0.5 -0.2 1.04
      vertex -0.5 0 1.02
      vertex -0.5 -0.2 1.02
    endloop
  endfacet
  facet normal -1 0 0
    outer loop
      vertex -0.5 0.77 1.02
      vertex -0.5 -0.2 1.04
      vertex -0.5 3 1.04
    endloop
  endfacet
  facet normal 0 0 1
    outer loop
      vertex -0.499999 2.8 0.0199995
      vertex -0.5 2.8 0.0199995
      vertex -0.499999 2.78001 0.0199995
    endloop
  endfacet
  facet normal 0 0 1
    outer loop
      vertex 0 2.78001 0.0199995
      vertex -0.249999 2.78 0.0199995
      vertex 0 1.52 0.0199995
    endloop
  endfacet
  facet normal 0 0 1
    outer loop
      vertex 0 2.78001 0.0199995
      vertex -0.27 2.78 0.0199995
      vertex -0.249999 2.78 0.0199995
    endloop
  endfacet
  facet normal -0 0 1
    outer loop
      vertex -0.499999 2.78001 0.0199995
      vertex -0.27 2.78 0.0199995
      vertex 0 2.78001 0.0199995
    endloop
  endfacet
  facet normal 0 0 1
    outer loop
      vertex -0.499999 2.78001 0.0199995
      vertex -0.27 1.52 0.0199995
      vertex -0.27 2.78 0.0199995
    endloop
  endfacet
  facet normal 0 0 1
    outer loop
      vertex -0.499999 2.78001 0.0199995
      vertex -0.5 1.52 0.0199995
      vertex -0.27 1.52 0.0199995
    endloop
  endfacet
  facet normal 0 0 1
    outer loop
      vertex -0.5 1.52 0.0199995
      vertex -0.499999 2.78001 0.0199995
      vertex -0.5 2.8 0.0199995
    endloop
  endfacet
  facet normal 0 0 1
    outer loop
      vertex 0 1.52 0.0199995
      vertex -0.249999 2.78 0.0199995
      vertex -0.249999 1.52 0.0199995
    endloop
  endfacet
  facet normal 0 0 1
    outer loop
      vertex -0.27 1.5 0.0199995
      vertex -0.499999 0.219986 0.0199995
      vertex -0.27 0.219986 0.0199995
    endloop
  endfacet
  facet normal -0 0 1
    outer loop
      vertex -0.5 1.5 0.0199995
      vertex -0.499999 0.219986 0.0199995
      vertex -0.27 1.5 0.0199995
    endloop
  endfacet
  facet normal 0 0 1
    outer loop
      vertex -0.5 0.2 0.0199995
      vertex -0.499999 0.219986 0.0199995
      vertex -0.5 1.5 0.0199995
    endloop
  endfacet
  facet normal 0 0 1
    outer loop
      vertex -0.499999 0.219986 0.0199995
      vertex -0.5 0.2 0.0199995
      vertex -0.499999 0.2 0.0199995
    endloop
  endfacet
  facet normal -0 0 1
    outer loop
      vertex -0.249999 1.5 0.0199995
      vertex 0 0.219985 0.0199995
      vertex 0 1.5 0.0199995
    endloop
  endfacet
  facet normal -0 0 1
    outer loop
      vertex -0.249999 0.219986 0.0199995
      vertex 0 0.219985 0.0199995
      vertex -0.249999 1.5 0.0199995
    endloop
  endfacet
  facet normal -0 0 1
    outer loop
      vertex -0.27 0.219986 0.0199995
      vertex 0 0.219985 0.0199995
      vertex -0.249999 0.219986 0.0199995
    endloop
  endfacet
  facet normal 0 0 1
    outer loop
      vertex 0 0.219985 0.0199995
      vertex -0.27 0.219986 0.0199995
      vertex -0.499999 0.219986 0.0199995
    endloop
  endfacet
  facet normal 0 0 -1
    outer loop
      vertex -0.499999 0.199997 0.0199995
      vertex 0 0.2 0.0199995
      vertex 0 0.199996 0.0199995
    endloop
  endfacet
  facet normal -0 0 -1
    outer loop
      vertex 0 0.2 0.0199995
      vertex -0.499999 0.199997 0.0199995
      vertex -0.499999 0.2 0.0199995
    endloop
  endfacet
  facet normal 0 1 -0
    outer loop
      vertex 0 2.8 0
      vertex -0.499999 2.8 0.0199995
      vertex 0 2.8 0.0199995
    endloop
  endfacet
  facet normal 0 1 0
    outer loop
      vertex -0.5 2.8 0
      vertex -0.499999 2.8 0.0199995
      vertex 0 2.8 0
    endloop
  endfacet
  facet normal 0 1 0
    outer loop
      vertex -0.499999 2.8 0.0199995
      vertex -0.5 2.8 0
      vertex -0.5 2.8 0.0199995
    endloop
  endfacet
  facet normal 0 -1 0
    outer loop
      vertex -0.5 0.2 0
      vertex -0.499999 0.2 0.0199995
      vertex -0.5 0.2 0.0199995
    endloop
  endfacet
  facet normal 0 -1 -0
    outer loop
      vertex -0.499999 0.2 0.0199995
      vertex -0.5 0.2 0
      vertex 0 0.2 0.0199995
    endloop
  endfacet
  facet normal 0 -1 -0
    outer loop
      vertex 0 0.2 0.0199995
      vertex -0.5 0.2 0
      vertex 0 0.2 0
    endloop
  endfacet
  facet normal 0 0 -1
    outer loop
      vertex -0.27 0.019989 1.02
      vertex -0.27 0.75 1.02
      vertex -0.27 1.5 1.02
    endloop
  endfacet
  facet normal 0 0 -1
    outer loop
      vertex -0.5 0.019989 1.02
      vertex -0.27 0.019989 1.02
      vertex -0.260416 0.0199886 1.02
    endloop
  endfacet
  facet normal 0 0 -1
    outer loop
      vertex -0.5 0.019989 1.02
      vertex -0.27 0.75 1.02
      vertex -0.27 0.019989 1.02
    endloop
  endfacet
  facet normal -0 0 -1
    outer loop
      vertex -0.27 0.75 1.02
      vertex -0.5 0.019989 1.02
      vertex -0.5 0.75 1.02
    endloop
  endfacet
  facet normal 0 0 -1
    outer loop
      vertex -0.27 0.77 1.02
      vertex -0.27 1.5 1.02
      vertex -0.27 0.75 1.02
    endloop
  endfacet
  facet normal 0 0 -1
    outer loop
      vertex -0.5 0.77 1.02
      vertex -0.27 1.5 1.02
      vertex -0.27 0.77 1.02
    endloop
  endfacet
  facet normal -0 0 -1
    outer loop
      vertex -0.27 1.5 1.02
      vertex -0.5 0.77 1.02
      vertex -0.5 1.5 1.02
    endloop
  endfacet
  facet normal 0 0 -1
    outer loop
      vertex -0.27 1.52 1.02
      vertex -0.5 1.52 1.02
      vertex -0.27 2.98 1.02
    endloop
  endfacet
  facet normal 0 0 -1
    outer loop
      vertex 0 1.52 1.02
      vertex -0.249999 2.98 1.02
      vertex 0 2.98001 1.02
    endloop
  endfacet
  facet normal 0 -0 -1
    outer loop
      vertex -0.249999 2.98 1.02
      vertex 0 1.52 1.02
      vertex -0.25 1.52 1.02
    endloop
  endfacet
  facet normal 0 0 -1
    outer loop
      vertex -0.27 2.98 1.02
      vertex 0 2.98001 1.02
      vertex -0.249999 2.98 1.02
    endloop
  endfacet
  facet normal 0 0 -1
    outer loop
      vertex -0.27 2.98 1.02
      vertex -0.5 2.98001 1.02
      vertex 0 2.98001 1.02
    endloop
  endfacet
  facet normal 0 0 -1
    outer loop
      vertex -0.5 2.98001 1.02
      vertex -0.27 2.98 1.02
      vertex -0.5 1.52 1.02
    endloop
  endfacet
  facet normal 0 0 -1
    outer loop
      vertex 0 0.77 1.02
      vertex -0.25 1.5 1.02
      vertex 0 1.5 1.02
    endloop
  endfacet
  facet normal 0 -0 -1
    outer loop
      vertex -0.25 1.5 1.02
      vertex 0 0.77 1.02
      vertex -0.25 0.77 1.02
    endloop
  endfacet
  facet normal 0 0 -1
    outer loop
      vertex 0 0.0199881 1.02
      vertex -0.25 0.75 1.02
      vertex 0 0.75 1.02
    endloop
  endfacet
  facet normal 0 -0 -1
    outer loop
      vertex -0.25 0.75 1.02
      vertex 0 0.0199881 1.02
      vertex -0.25 0.0199885 1.02
    endloop
  endfacet
  facet normal -0 0 1
    outer loop
      vertex -0.5 3 1.04
      vertex 0 -0.2 1.04
      vertex 0 3 1.04
    endloop
  endfacet
  facet normal 0 0 1
    outer loop
      vertex 0 -0.2 1.04
      vertex -0.5 3 1.04
      vertex -0.5 -0.2 1.04
    endloop
  endfacet
  facet normal 0 1 -0
    outer loop
      vertex 0 3 0.52
      vertex -0.5 3 1.04
      vertex 0 3 1.04
    endloop
  endfacet
  facet normal 0 1 0
    outer loop
      vertex -0.5 3 1.04
      vertex 0 3 0.52
      vertex -0.5 3 0.52
    endloop
  endfacet
  facet normal 0 -1 0
    outer loop
      vertex -0.5 0 0.52
      vertex 0 0 1.02
      vertex -0.5 0 1.02
    endloop
  endfacet
  facet normal 0 -1 -0
    outer loop
      vertex 0 0 1.02
      vertex -0.5 0 0.52
      vertex 0 0 0.52
    endloop
  endfacet
  facet normal -1 0 -1.90735e-06
    outer loop
      vertex -0.5 0.019989 0.52
      vertex -0.499999 0.2 0.0199995
      vertex -0.499999 0.199997 0.0199995
    endloop
  endfacet
  facet normal -1 0 -1.90735e-06
    outer loop
      vertex -0.499999 0.2 0.0199995
      vertex -0.5 0.019989 0.52
      vertex -0.499999 0.219986 0.0199995
    endloop
  endfacet
  facet normal -1 -0 -1.90735e-06
    outer loop
      vertex -0.5 0.019989 0.52
      vertex -0.499999 0.199997 0.0199995
      vertex -0.5 0 0.52
    endloop
  endfacet
  facet normal 1.90475e-06 1 -0
    outer loop
      vertex -0.260416 0.0199886 0.52
      vertex -0.5 0.019989 1.02
      vertex -0.260416 0.0199886 1.02
    endloop
  endfacet
  facet normal 1.90475e-06 1 0
    outer loop
      vertex -0.5 0.019989 1.02
      vertex -0.260416 0.0199886 0.52
      vertex -0.5 0.019989 0.52
    endloop
  endfacet
  facet normal 1.90735e-06 1 -0
    outer loop
      vertex 0 0.0199881 0.52
      vertex -0.25 0.0199885 1.02
      vertex 0 0.0199881 1.02
    endloop
  endfacet
  facet normal 1.90735e-06 1 0
    outer loop
      vertex -0.25 0.0199885 1.02
      vertex 0 0.0199881 0.52
      vertex -0.25 0.0199885 0.52
    endloop
  endfacet
  facet normal 0 -0.928479 -0.371386
    outer loop
      vertex -0.499999 0.199997 0.0199995
      vertex 0 0 0.52
      vertex -0.5 0 0.52
    endloop
  endfacet
  facet normal -1.77094e-06 -0.928479 -0.371384
    outer loop
      vertex 0 0.199996 0.0199995
      vertex 0 0 0.52
      vertex -0.499999 0.199997 0.0199995
    endloop
  endfacet
  facet normal 1.46098e-06 0.928479 0.371386
    outer loop
      vertex -0.25 0.119987 0.27
      vertex 0 0.219985 0.0199995
      vertex -0.260416 0.124154 0.259583
    endloop
  endfacet
  facet normal 1.67743e-06 0.928479 0.371386
    outer loop
      vertex -0.260416 0.124154 0.259583
      vertex -0.5 0.019989 0.52
      vertex -0.260416 0.115821 0.280416
    endloop
  endfacet
  facet normal 1.79789e-06 0.928479 0.371386
    outer loop
      vertex -0.260416 0.124154 0.259583
      vertex -0.499999 0.219986 0.0199995
      vertex -0.5 0.019989 0.52
    endloop
  endfacet
  facet normal 1.77094e-06 0.928479 0.371386
    outer loop
      vertex -0.499999 0.219986 0.0199995
      vertex -0.260416 0.124154 0.259583
      vertex 0 0.219985 0.0199995
    endloop
  endfacet
  facet normal 1.76852e-06 0.928479 0.371386
    outer loop
      vertex -0.260416 0.0199886 0.52
      vertex -0.260416 0.115821 0.280416
      vertex -0.5 0.019989 0.52
    endloop
  endfacet
  facet normal 1.77093e-06 0.928479 0.371386
    outer loop
      vertex 0 0.0199881 0.52
      vertex -0.25 0.119987 0.27
      vertex -0.25 0.0199885 0.52
    endloop
  endfacet
  facet normal 1.75986e-06 0.928479 0.371386
    outer loop
      vertex 0 0.219985 0.0199995
      vertex -0.25 0.119987 0.27
      vertex 0 0.0199881 0.52
    endloop
  endfacet
  facet normal -1 0 -1.90735e-06
    outer loop
      vertex -0.499999 2.8 0.0199995
      vertex -0.5 2.98001 0.52
      vertex -0.5 3 0.52
    endloop
  endfacet
  facet normal -1 0 -1.90735e-06
    outer loop
      vertex -0.5 2.98001 0.52
      vertex -0.499999 2.8 0.0199995
      vertex -0.499999 2.78001 0.0199995
    endloop
  endfacet
  facet normal 0 -1 0
    outer loop
      vertex -0.5 2.98001 0.52
      vertex 0 2.98001 1.02
      vertex -0.5 2.98001 1.02
    endloop
  endfacet
  facet normal 0 -1 -0
    outer loop
      vertex 0 2.98001 1.02
      vertex -0.5 2.98001 0.52
      vertex 0 2.98001 0.52
    endloop
  endfacet
  facet normal 0 0.928479 -0.371386
    outer loop
      vertex 0 2.8 0.0199995
      vertex -0.5 3 0.52
      vertex 0 3 0.52
    endloop
  endfacet
  facet normal 0 0.928479 -0.371386
    outer loop
      vertex -0.5 3 0.52
      vertex 0 2.8 0.0199995
      vertex -0.499999 2.8 0.0199995
    endloop
  endfacet
  facet normal 0 -0.928479 0.371386
    outer loop
      vertex -0.499999 2.78001 0.0199995
      vertex 0 2.98001 0.52
      vertex -0.5 2.98001 0.52
    endloop
  endfacet
  facet normal 0 -0.928479 0.371386
    outer loop
      vertex 0 2.98001 0.52
      vertex -0.499999 2.78001 0.0199995
      vertex 0 2.78001 0.0199995
    endloop
  endfacet
  facet normal 0 0.928479 -0.371386
    outer loop
      vertex -0.249999 2.78 0.0199995
      vertex -0.27 2.98 0.52
      vertex -0.249999 2.98 0.52
    endloop
  endfacet
  facet normal 0 0.928479 -0.371386
    outer loop
      vertex -0.27 2.98 0.52
      vertex -0.249999 2.78 0.0199995
      vertex -0.27 2.78 0.0199995
    endloop
  endfacet
  facet normal 0 1 -0
    outer loop
      vertex -0.249999 2.98 0.52
      vertex -0.27 2.98 1.02
      vertex -0.249999 2.98 1.02
    endloop
  endfacet
  facet normal 0 1 0
    outer loop
      vertex -0.27 2.98 1.02
      vertex -0.249999 2.98 0.52
      vertex -0.27 2.98 0.52
    endloop
  endfacet
  facet normal 1 -3.26599e-07 8.85254e-07
    outer loop
      vertex -0.25 0.0199885 1.02
      vertex -0.249999 0.75 0.212033
      vertex -0.25 0.75 1.02
    endloop
  endfacet
  facet normal 1 -3.22187e-07 8.8924e-07
    outer loop
      vertex -0.249999 0.75 0.212033
      vertex -0.25 0.0199885 1.02
      vertex -0.249999 0.219986 0.0199995
    endloop
  endfacet
  facet normal 1 -3.26602e-07 9.01424e-07
    outer loop
      vertex -0.249999 2.98 1.02
      vertex -0.25 1.52 1.02
      vertex -0.249999 1.52 0.491017
    endloop
  endfacet
  facet normal 1 -3.26601e-07 8.89243e-07
    outer loop
      vertex -0.25 0.77 1.02
      vertex -0.249999 1.5 0.483771
      vertex -0.25 1.5 1.02
    endloop
  endfacet
  facet normal 1 -3.23646e-07 8.93265e-07
    outer loop
      vertex -0.249999 1.5 0.483771
      vertex -0.25 0.77 1.02
      vertex -0.249999 0.77 0.219279
    endloop
  endfacet
  facet normal 6.19922e-07 -0.928478 -0.371387
    outer loop
      vertex -0.249999 0.219986 0.0199995
      vertex -0.25 0.119987 0.27
      vertex -0.260416 0.124154 0.259583
    endloop
  endfacet
  facet normal -0 -0.928478 -0.371387
    outer loop
      vertex -0.249999 0.219986 0.0199995
      vertex -0.260416 0.124154 0.259583
      vertex -0.27 0.219986 0.0199995
    endloop
  endfacet
  facet normal 1 0 0
    outer loop
      vertex -0.249999 1.52 0.491017
      vertex -0.249999 2.98 0.52
      vertex -0.249999 2.98 1.02
    endloop
  endfacet
  facet normal 1 0 0
    outer loop
      vertex -0.249999 2.98 0.52
      vertex -0.249999 1.52 0.491017
      vertex -0.249999 2.78 0.0199995
    endloop
  endfacet
  facet normal 1 0 0
    outer loop
      vertex -0.249999 2.78 0.0199995
      vertex -0.249999 1.52 0.491017
      vertex -0.249999 1.52 0.0199995
    endloop
  endfacet
  facet normal 1 0 0
    outer loop
      vertex -0.249999 0.75 0.212033
      vertex -0.249999 0.219986 0.0199995
      vertex -0.249999 0.75 0.04
    endloop
  endfacet
  facet normal 1 0 0
    outer loop
      vertex -0.249999 1.5 0.483771
      vertex -0.249999 0.969999 0.24
      vertex -0.249999 1.5 0.0199995
    endloop
  endfacet
  facet normal 1 0 0
    outer loop
      vertex -0.249999 1.5 0.483771
      vertex -0.249999 0.95 0.24
      vertex -0.249999 0.969999 0.24
    endloop
  endfacet
  facet normal 1 0 0
    outer loop
      vertex -0.249999 0.77 0.219279
      vertex -0.249999 0.95 0.24
      vertex -0.249999 1.5 0.483771
    endloop
  endfacet
  facet normal 1 -0 0
    outer loop
      vertex -0.249999 0.77 0.219279
      vertex -0.249999 0.95 0.0599995
      vertex -0.249999 0.95 0.24
    endloop
  endfacet
  facet normal 1 0 0
    outer loop
      vertex -0.249999 0.95 0.0599995
      vertex -0.249999 0.77 0.219279
      vertex -0.249999 0.77 0.0599995
    endloop
  endfacet
  facet normal 1 -0 0
    outer loop
      vertex -0.249999 0.969999 0.04
      vertex -0.249999 1.5 0.0199995
      vertex -0.249999 0.969999 0.24
    endloop
  endfacet
  facet normal 1 -0 0
    outer loop
      vertex -0.249999 0.75 0.04
      vertex -0.249999 1.5 0.0199995
      vertex -0.249999 0.969999 0.04
    endloop
  endfacet
  facet normal 1 0 0
    outer loop
      vertex -0.249999 1.5 0.0199995
      vertex -0.249999 0.75 0.04
      vertex -0.249999 0.219986 0.0199995
    endloop
  endfacet
  facet normal 1 -4.76839e-06 8.24239e-12
    outer loop
      vertex -0.25 0.0199885 1.02
      vertex -0.25 0.119987 0.27
      vertex -0.249999 0.219986 0.0199995
    endloop
  endfacet
  facet normal 1 -4.76845e-06 0
    outer loop
      vertex -0.25 0.119987 0.27
      vertex -0.25 0.0199885 1.02
      vertex -0.25 0.0199885 0.52
    endloop
  endfacet
  facet normal -1 0 0
    outer loop
      vertex -0.27 0.219986 0.0199995
      vertex -0.27 1.5 1.02
      vertex -0.27 1.5 0.0199995
    endloop
  endfacet
  facet normal -1 0 0
    outer loop
      vertex -0.27 0.019989 0.52
      vertex -0.27 1.5 1.02
      vertex -0.27 0.219986 0.0199995
    endloop
  endfacet
  facet normal -1 -0 0
    outer loop
      vertex -0.27 1.5 1.02
      vertex -0.27 0.019989 0.52
      vertex -0.27 0.019989 1.02
    endloop
  endfacet
  facet normal -1 0 0
    outer loop
      vertex -0.27 1.52 1.02
      vertex -0.27 2.98 0.52
      vertex -0.27 2.78 0.0199995
    endloop
  endfacet
  facet normal -1 0 0
    outer loop
      vertex -0.27 1.52 1.02
      vertex -0.27 2.78 0.0199995
      vertex -0.27 1.52 0.0199995
    endloop
  endfacet
  facet normal -1 0 0
    outer loop
      vertex -0.27 2.98 0.52
      vertex -0.27 1.52 1.02
      vertex -0.27 2.98 1.02
    endloop
  endfacet
  facet normal -4.42142e-05 -0.928479 -0.371386
    outer loop
      vertex -0.27 0.019989 0.52
      vertex -0.260416 0.115821 0.280416
      vertex -0.260416 0.0199886 0.52
    endloop
  endfacet
  facet normal -4.19367e-05 -0.928479 -0.371386
    outer loop
      vertex -0.27 0.019989 0.52
      vertex -0.260416 0.124154 0.259583
      vertex -0.260416 0.115821 0.280416
    endloop
  endfacet
  facet normal -4.49482e-05 -0.928479 -0.371386
    outer loop
      vertex -0.260416 0.124154 0.259583
      vertex -0.27 0.019989 0.52
      vertex -0.27 0.219986 0.0199995
    endloop
  endfacet
  facet normal -4.762e-05 -1 0
    outer loop
      vertex -0.27 0.019989 0.52
      vertex -0.260416 0.0199886 1.02
      vertex -0.27 0.019989 1.02
    endloop
  endfacet
  facet normal -4.762e-05 -1 -0
    outer loop
      vertex -0.260416 0.0199886 1.02
      vertex -0.27 0.019989 0.52
      vertex -0.260416 0.0199886 0.52
    endloop
  endfacet
  facet normal 0 -1 0
    outer loop
      vertex -0.249999 1.5 0.483771
      vertex 0 1.5 1.02
      vertex -0.25 1.5 1.02
    endloop
  endfacet
  facet normal 0 -1 0
    outer loop
      vertex 0 1.5 0.0199995
      vertex -0.249999 1.5 0.483771
      vertex -0.249999 1.5 0.0199995
    endloop
  endfacet
  facet normal 0 -1 0
    outer loop
      vertex -0.249999 1.5 0.483771
      vertex 0 1.5 0.0199995
      vertex 0 1.5 1.02
    endloop
  endfacet
  facet normal 0 1 0
    outer loop
      vertex 0 1.52 1.02
      vertex -0.249999 1.52 0.491017
      vertex -0.25 1.52 1.02
    endloop
  endfacet
  facet normal 0 1 -0
    outer loop
      vertex 0 1.52 0.0199995
      vertex -0.249999 1.52 0.491017
      vertex 0 1.52 1.02
    endloop
  endfacet
  facet normal 0 1 0
    outer loop
      vertex -0.249999 1.52 0.491017
      vertex 0 1.52 0.0199995
      vertex -0.249999 1.52 0.0199995
    endloop
  endfacet
  facet normal 0 1 -0
    outer loop
      vertex -0.27 1.52 0.0199995
      vertex -0.5 1.52 1.02
      vertex -0.27 1.52 1.02
    endloop
  endfacet
  facet normal 0 1 0
    outer loop
      vertex -0.5 1.52 1.02
      vertex -0.27 1.52 0.0199995
      vertex -0.5 1.52 0.0199995
    endloop
  endfacet
  facet normal 0 -1 0
    outer loop
      vertex -0.5 1.5 0.0199995
      vertex -0.27 1.5 1.02
      vertex -0.5 1.5 1.02
    endloop
  endfacet
  facet normal 0 -1 -0
    outer loop
      vertex -0.27 1.5 1.02
      vertex -0.5 1.5 0.0199995
      vertex -0.27 1.5 0.0199995
    endloop
  endfacet
  facet normal 0 0 -1
    outer loop
      vertex -0.5 -0.2 1.02
      vertex 0 0 1.02
      vertex 0 -0.2 1.02
    endloop
  endfacet
  facet normal -0 0 -1
    outer loop
      vertex 0 0 1.02
      vertex -0.5 -0.2 1.02
      vertex -0.5 0 1.02
    endloop
  endfacet
  facet normal 0 -1 0
    outer loop
      vertex -0.5 -0.2 1.02
      vertex 0 -0.2 1.04
      vertex -0.5 -0.2 1.04
    endloop
  endfacet
  facet normal 0 -1 -0
    outer loop
      vertex 0 -0.2 1.04
      vertex -0.5 -0.2 1.02
      vertex 0 -0.2 1.02
    endloop
  endfacet
endsolid OpenSCAD_Model
